<mxfile host="app.diagrams.net" agent="Mozilla/5.0 (Windows NT 10.0; Win64; x64) AppleWebKit/537.36 (KHTML, like Gecko) Chrome/127.0.0.0 Safari/537.36" version="24.7.7">
  <diagram name="第 1 页" id="c5ULhFlpVbo5xQjqxNRR">
    <mxGraphModel dx="852" dy="1697" grid="1" gridSize="10" guides="1" tooltips="1" connect="1" arrows="1" fold="1" page="1" pageScale="1" pageWidth="827" pageHeight="1169" math="0" shadow="0">
      <root>
        <mxCell id="0" />
        <mxCell id="1" parent="0" />
        <mxCell id="vr5x9FidwY8XEMQChV_H-2" value="" style="whiteSpace=wrap;html=1;aspect=fixed;" parent="1" vertex="1">
          <mxGeometry x="164" y="-40" width="500" height="500" as="geometry" />
        </mxCell>
        <mxCell id="vr5x9FidwY8XEMQChV_H-17" style="edgeStyle=orthogonalEdgeStyle;rounded=0;orthogonalLoop=1;jettySize=auto;html=1;entryX=0.5;entryY=1;entryDx=0;entryDy=0;" parent="1" source="vr5x9FidwY8XEMQChV_H-3" target="vr5x9FidwY8XEMQChV_H-16" edge="1">
          <mxGeometry relative="1" as="geometry" />
        </mxCell>
        <mxCell id="vr5x9FidwY8XEMQChV_H-3" value="IDS sensor" style="rounded=1;whiteSpace=wrap;html=1;fillColor=#dae8fc;strokeColor=#6c8ebf;" parent="1" vertex="1">
          <mxGeometry x="360" y="250" width="120" height="60" as="geometry" />
        </mxCell>
        <mxCell id="vr5x9FidwY8XEMQChV_H-12" value="" style="group" parent="1" vertex="1" connectable="0">
          <mxGeometry x="210" y="370" width="420" height="50" as="geometry" />
        </mxCell>
        <mxCell id="vr5x9FidwY8XEMQChV_H-4" value="" style="rounded=1;whiteSpace=wrap;html=1;fillColor=#d5e8d4;strokeColor=#82b366;" parent="vr5x9FidwY8XEMQChV_H-12" vertex="1">
          <mxGeometry width="420" height="50" as="geometry" />
        </mxCell>
        <mxCell id="vr5x9FidwY8XEMQChV_H-5" value="HAM" style="rounded=1;whiteSpace=wrap;html=1;fillColor=#fff2cc;strokeColor=#d6b656;" parent="vr5x9FidwY8XEMQChV_H-12" vertex="1">
          <mxGeometry x="14" y="10" width="90" height="30" as="geometry" />
        </mxCell>
        <mxCell id="vr5x9FidwY8XEMQChV_H-6" value="mac log" style="rounded=1;whiteSpace=wrap;html=1;fillColor=#fff2cc;strokeColor=#d6b656;" parent="vr5x9FidwY8XEMQChV_H-12" vertex="1">
          <mxGeometry x="310" y="10" width="90" height="30" as="geometry" />
        </mxCell>
        <mxCell id="vr5x9FidwY8XEMQChV_H-7" value="libpcap" style="rounded=1;whiteSpace=wrap;html=1;fillColor=#fff2cc;strokeColor=#d6b656;" parent="vr5x9FidwY8XEMQChV_H-12" vertex="1">
          <mxGeometry x="110" y="10" width="90" height="30" as="geometry" />
        </mxCell>
        <mxCell id="vr5x9FidwY8XEMQChV_H-8" value="libslog2parse" style="rounded=1;whiteSpace=wrap;html=1;fillColor=#fff2cc;strokeColor=#d6b656;" parent="vr5x9FidwY8XEMQChV_H-12" vertex="1">
          <mxGeometry x="210" y="10" width="90" height="30" as="geometry" />
        </mxCell>
        <mxCell id="vr5x9FidwY8XEMQChV_H-14" style="edgeStyle=orthogonalEdgeStyle;rounded=0;orthogonalLoop=1;jettySize=auto;html=1;entryX=0.5;entryY=1;entryDx=0;entryDy=0;" parent="1" source="vr5x9FidwY8XEMQChV_H-4" target="vr5x9FidwY8XEMQChV_H-3" edge="1">
          <mxGeometry relative="1" as="geometry" />
        </mxCell>
        <mxCell id="vr5x9FidwY8XEMQChV_H-19" style="edgeStyle=orthogonalEdgeStyle;rounded=0;orthogonalLoop=1;jettySize=auto;html=1;entryX=0.5;entryY=1;entryDx=0;entryDy=0;" parent="1" source="vr5x9FidwY8XEMQChV_H-16" target="vr5x9FidwY8XEMQChV_H-18" edge="1">
          <mxGeometry relative="1" as="geometry" />
        </mxCell>
        <mxCell id="vr5x9FidwY8XEMQChV_H-16" value="IDSM" style="rounded=1;whiteSpace=wrap;html=1;fillColor=#dae8fc;strokeColor=#6c8ebf;" parent="1" vertex="1">
          <mxGeometry x="360" y="120" width="120" height="60" as="geometry" />
        </mxCell>
        <mxCell id="vr5x9FidwY8XEMQChV_H-18" value="APP/显示终端" style="rounded=1;whiteSpace=wrap;html=1;fillColor=#dae8fc;strokeColor=#6c8ebf;" parent="1" vertex="1">
          <mxGeometry x="360" y="-10" width="120" height="60" as="geometry" />
        </mxCell>
        <mxCell id="suo4BH3ee55JKuwL1kNS-1" value=":Object" style="shape=umlLifeline;perimeter=lifelinePerimeter;container=1;collapsible=0;recursiveResize=0;rounded=0;shadow=0;strokeWidth=1;" vertex="1" parent="1">
          <mxGeometry x="120" y="80" width="100" height="300" as="geometry" />
        </mxCell>
        <mxCell id="suo4BH3ee55JKuwL1kNS-2" value="" style="points=[];perimeter=orthogonalPerimeter;rounded=0;shadow=0;strokeWidth=1;" vertex="1" parent="suo4BH3ee55JKuwL1kNS-1">
          <mxGeometry x="45" y="70" width="10" height="190" as="geometry" />
        </mxCell>
        <mxCell id="suo4BH3ee55JKuwL1kNS-3" value="dispatch" style="verticalAlign=bottom;startArrow=oval;endArrow=block;startSize=8;shadow=0;strokeWidth=1;" edge="1" parent="suo4BH3ee55JKuwL1kNS-1" target="suo4BH3ee55JKuwL1kNS-2">
          <mxGeometry relative="1" as="geometry">
            <mxPoint x="-15" y="70" as="sourcePoint" />
          </mxGeometry>
        </mxCell>
        <mxCell id="suo4BH3ee55JKuwL1kNS-4" value="" style="points=[];perimeter=orthogonalPerimeter;rounded=0;shadow=0;strokeWidth=1;" vertex="1" parent="suo4BH3ee55JKuwL1kNS-1">
          <mxGeometry x="50" y="120" width="10" height="80" as="geometry" />
        </mxCell>
        <mxCell id="suo4BH3ee55JKuwL1kNS-5" value=":Object" style="shape=umlLifeline;perimeter=lifelinePerimeter;container=1;collapsible=0;recursiveResize=0;rounded=0;shadow=0;strokeWidth=1;" vertex="1" parent="1">
          <mxGeometry x="300" y="80" width="100" height="300" as="geometry" />
        </mxCell>
        <mxCell id="suo4BH3ee55JKuwL1kNS-6" value="" style="points=[];perimeter=orthogonalPerimeter;rounded=0;shadow=0;strokeWidth=1;" vertex="1" parent="suo4BH3ee55JKuwL1kNS-5">
          <mxGeometry x="45" y="80" width="10" height="160" as="geometry" />
        </mxCell>
        <mxCell id="suo4BH3ee55JKuwL1kNS-7" value="return" style="verticalAlign=bottom;endArrow=open;dashed=1;endSize=8;exitX=0;exitY=0.95;shadow=0;strokeWidth=1;" edge="1" parent="1" source="suo4BH3ee55JKuwL1kNS-6" target="suo4BH3ee55JKuwL1kNS-2">
          <mxGeometry relative="1" as="geometry">
            <mxPoint x="275" y="236" as="targetPoint" />
          </mxGeometry>
        </mxCell>
        <mxCell id="suo4BH3ee55JKuwL1kNS-8" value="dispatch" style="verticalAlign=bottom;endArrow=block;entryX=0;entryY=0;shadow=0;strokeWidth=1;" edge="1" parent="1" source="suo4BH3ee55JKuwL1kNS-2" target="suo4BH3ee55JKuwL1kNS-6">
          <mxGeometry relative="1" as="geometry">
            <mxPoint x="275" y="160" as="sourcePoint" />
          </mxGeometry>
        </mxCell>
        <mxCell id="suo4BH3ee55JKuwL1kNS-9" value="callback" style="verticalAlign=bottom;endArrow=block;entryX=1;entryY=0;shadow=0;strokeWidth=1;" edge="1" parent="1" source="suo4BH3ee55JKuwL1kNS-6" target="suo4BH3ee55JKuwL1kNS-4">
          <mxGeometry relative="1" as="geometry">
            <mxPoint x="240" y="200" as="sourcePoint" />
          </mxGeometry>
        </mxCell>
        <mxCell id="suo4BH3ee55JKuwL1kNS-10" value="return" style="verticalAlign=bottom;endArrow=open;dashed=1;endSize=8;exitX=1;exitY=0.95;shadow=0;strokeWidth=1;" edge="1" parent="1" source="suo4BH3ee55JKuwL1kNS-4" target="suo4BH3ee55JKuwL1kNS-6">
          <mxGeometry relative="1" as="geometry">
            <mxPoint x="240" y="257" as="targetPoint" />
          </mxGeometry>
        </mxCell>
      </root>
    </mxGraphModel>
  </diagram>
</mxfile>
